<?xml version="1.0" ?><svg fill="none" height="32" viewBox="0 0 32 32" width="32" xmlns="http://www.w3.org/2000/svg"><path d="M19.1716 11H5C3.89543 11 3 11.8954 3 13V24C3 25.1046 3.89543 26 5 26H7H11H16H23H27C28.1046 26 29 25.1046 29 24V18C29 16.8954 28.1046 16 27 16H25.8284C25.298 16 24.7893 15.7893 24.4142 15.4142L20.5858 11.5858C20.2107 11.2107 19.702 11 19.1716 11Z" fill="#EB666B" stroke="#EB666B" stroke-width="2"/><path d="M15 14H19L22 18H15V14Z" fill="#F8C09D" stroke="#F8C09D" stroke-linecap="round" stroke-linejoin="round" stroke-width="2"/><path d="M14 9V11H18V9C18 7.89543 17.1046 7 16 7C14.8954 7 14 7.89543 14 9Z" fill="#F8C09D" stroke="#EB666B" stroke-width="2"/><circle cx="9" cy="26" fill="#EB666B" r="2" stroke="#F8C09D" stroke-width="2"/><circle cx="25" cy="26" fill="#EB666B" r="2" stroke="#F8C09D" stroke-width="2"/><path clip-rule="evenodd" d="M10 14C10 13.4477 9.55228 13 9 13C8.44772 13 8 13.4477 8 14V16H6C5.44772 16 5 16.4477 5 17C5 17.5523 5.44772 18 6 18H8V20C8 20.5523 8.44772 21 9 21C9.55228 21 10 20.5523 10 20V18H12C12.5523 18 13 17.5523 13 17C13 16.4477 12.5523 16 12 16H10V14Z" fill="#F8C09D" fill-rule="evenodd"/></svg>